<?xml version="1.0" encoding="UTF-8" standalone="no"?>
<!-- Created with Inkscape (http://www.inkscape.org/) -->

<svg
   xmlns:dc="http://purl.org/dc/elements/1.1/"
   xmlns:cc="http://creativecommons.org/ns#"
   xmlns:rdf="http://www.w3.org/1999/02/22-rdf-syntax-ns#"
   xmlns:svg="http://www.w3.org/2000/svg"
   xmlns="http://www.w3.org/2000/svg"
   xmlns:sodipodi="http://sodipodi.sourceforge.net/DTD/sodipodi-0.dtd"
   xmlns:inkscape="http://www.inkscape.org/namespaces/inkscape"
   width="210mm"
   height="297mm"
   viewBox="0 0 210 297"
   version="1.1"
   id="svg4195"
   inkscape:version="0.92.4 (unknown)"
   sodipodi:docname="BoringLogo.svg">
  <defs
     id="defs4189" />
  <sodipodi:namedview
     id="base"
     pagecolor="#ffffff"
     bordercolor="#666666"
     borderopacity="1.0"
     inkscape:pageopacity="0.0"
     inkscape:pageshadow="2"
     inkscape:zoom="5.6"
     inkscape:cx="334.84825"
     inkscape:cy="894.75339"
     inkscape:document-units="mm"
     inkscape:current-layer="layer1"
     showgrid="false"
     inkscape:window-width="3200"
     inkscape:window-height="1671"
     inkscape:window-x="0"
     inkscape:window-y="55"
     inkscape:window-maximized="1" />
  <metadata
     id="metadata4192">
    <rdf:RDF>
      <cc:Work
         rdf:about="">
        <dc:format>image/svg+xml</dc:format>
        <dc:type
           rdf:resource="http://purl.org/dc/dcmitype/StillImage" />
        <dc:title></dc:title>
      </cc:Work>
    </rdf:RDF>
  </metadata>
  <g
     inkscape:label="Layer 1"
     inkscape:groupmode="layer"
     id="layer1">
    <g
       transform="matrix(0.02955924,0,0,0.02955924,-78.079934,10.549137)"
       style="clip-rule:evenodd;fill-rule:evenodd;image-rendering:optimizeQuality;shape-rendering:geometricPrecision;text-rendering:geometricPrecision"
       id="g307"
       inkscape:export-xdpi="300"
       inkscape:export-ydpi="300">
      <g
         id="g297">
        <g
           id="g291">
          <path
             class="fil1 str2"
             d="m 5736.12,1276.32 v 0 c 1.44,0 2.87,0.02 4.3,0.05 v 0 c 1.43,0.04 2.85,0.09 4.27,0.16 v 0 c 1.42,0.07 2.83,0.16 4.24,0.27 v 0 c 1.41,0.1 2.81,0.23 4.21,0.37 v 0 c 1.4,0.15 2.79,0.3 4.18,0.48 v 0 c 1.39,0.18 2.77,0.37 4.15,0.58 v 0 c 1.38,0.21 2.75,0.44 4.12,0.68 v 0 c 1.37,0.25 2.72,0.5 4.08,0.78 v 0 c 1.35,0.28 2.7,0.57 4.05,0.88 v 0 c 1.34,0.31 2.68,0.64 4.01,0.98 v 0 c 1.33,0.34 2.65,0.7 3.97,1.08 v 0 c 1.32,0.38 2.63,0.76 3.93,1.17 v 0 c 1.31,0.41 2.6,0.83 3.89,1.27 v 0 c 1.29,0.43 2.57,0.89 3.85,1.35 v 0 c 1.28,0.47 2.54,0.95 3.8,1.45 v 0 c 1.26,0.5 2.51,1.01 3.76,1.54 v 0 c 1.24,0.53 2.48,1.07 3.71,1.62 v 0 c 1.23,0.55 2.45,1.13 3.66,1.71 v 0 c 1.21,0.58 2.42,1.18 3.61,1.8 v 0 c 1.2,0.61 2.39,1.24 3.57,1.88 v 0 c 1.18,0.64 2.35,1.3 3.51,1.96 v 0 c 2.32,1.34 4.61,2.73 6.86,4.17 v 0 c 1.12,0.72 2.24,1.45 3.35,2.21 v 0 c 1.11,0.75 2.21,1.51 3.29,2.28 v 0 c 1.09,0.77 2.17,1.56 3.24,2.36 v 0 c 1.07,0.8 2.13,1.61 3.17,2.44 v 0 c 1.05,0.83 2.09,1.66 3.11,2.51 v 0 c 1.03,0.85 2.04,1.71 3.05,2.58 v 0 c 1.01,0.87 2.01,1.76 2.99,2.65 v 0 c 0.98,0.9 1.96,1.8 2.92,2.72 v 0 c 0.96,0.92 1.91,1.85 2.86,2.79 v 0 c 0.94,0.94 1.87,1.89 2.79,2.86 v 0 c 0.92,0.96 1.83,1.94 2.72,2.92 v 0 c 0.9,0.99 1.78,1.99 2.65,2.99 v 0 c 0.87,1.01 1.73,2.03 2.58,3.05 v 0 c 0.85,1.03 1.68,2.07 2.51,3.12 v 0 c 0.83,1.05 1.63,2.1 2.44,3.17 v 0 c 0.8,1.07 1.59,2.15 2.36,3.24 v 0 c 0.77,1.09 1.53,2.19 2.28,3.29 v 0 c 0.75,1.11 1.48,2.23 2.2,3.35 v 0 c 0.72,1.13 1.43,2.26 2.12,3.41 v 0 c 0.69,1.14 1.38,2.3 2.05,3.46 v 0 c 0.67,1.16 1.32,2.33 1.96,3.51 v 0 c 0.64,1.18 1.27,2.37 1.88,3.57 v 0 c 0.61,1.2 1.21,2.4 1.8,3.62 v 0 c 0.59,1.21 1.15,2.44 1.71,3.66 v 0 c 0.56,1.23 1.1,2.47 1.62,3.71 v 0 c 0.53,1.25 1.04,2.5 1.54,3.76 v 0 c 0.5,1.26 0.98,2.53 1.45,3.81 v 0 c 0.47,1.28 0.92,2.56 1.35,3.85 v 0 c 0.44,1.29 0.86,2.59 1.26,3.89 v 0 c 0.41,1.3 0.8,2.62 1.17,3.93 v 0 c 0.38,1.32 0.73,2.64 1.08,3.97 v 0 c 0.34,1.33 0.67,2.67 0.98,4.01 v 0 c 0.31,1.34 0.61,2.69 0.88,4.05 v 0 c 0.28,1.36 0.53,2.72 0.78,4.08 v 0 c 0.24,1.37 0.47,2.74 0.68,4.12 v 0 c 0.21,1.38 0.4,2.76 0.58,4.15 v 0 c 0.18,1.39 0.34,2.78 0.48,4.18 v 0 c 0.14,1.4 0.26,2.8 0.37,4.21 v 0 c 0.1,1.41 0.19,2.82 0.27,4.25 v 0 c 0.07,1.42 0.13,2.84 0.16,4.27 v 0 c 0.04,1.43 0.05,2.86 0.05,4.3 v 0 0 1.01 0.06 0.95 0.12 c -0.18,21.99 -3.28,39.96 -11.51,60.44 -21.66,53.82 -76.92,148.52 -153.04,268.64 l -1.95,2.72 -2.01,-2.72 c -76.13,-120.12 -131.38,-214.82 -153.04,-268.64 -8.23,-20.48 -11.33,-38.45 -11.51,-60.44 v -0.12 l -0.01,-0.95 v -0.06 -1.01 c 0,-1.44 0.02,-2.87 0.05,-4.3 v 0 c 0.04,-1.43 0.09,-2.85 0.16,-4.27 v 0 c 0.07,-1.42 0.16,-2.83 0.27,-4.25 v 0 c 0.11,-1.41 0.23,-2.81 0.37,-4.21 v 0 c 0.14,-1.4 0.3,-2.8 0.48,-4.18 v 0 c 0.18,-1.39 0.37,-2.77 0.58,-4.15 v 0 c 0.21,-1.38 0.44,-2.75 0.68,-4.12 v 0 c 0.24,-1.37 0.5,-2.73 0.78,-4.08 v 0 c 0.28,-1.36 0.57,-2.71 0.88,-4.05 v 0 c 0.31,-1.34 0.64,-2.68 0.98,-4.01 v 0 c 0.35,-1.33 0.7,-2.65 1.08,-3.97 v 0 c 0.38,-1.32 0.76,-2.63 1.17,-3.93 v 0 c 0.41,-1.3 0.83,-2.6 1.26,-3.89 v 0 c 0.44,-1.29 0.89,-2.57 1.35,-3.85 v 0 c 0.47,-1.28 0.95,-2.54 1.45,-3.81 v 0 c 0.5,-1.26 1.01,-2.51 1.54,-3.76 v 0 c 0.53,-1.24 1.07,-2.48 1.62,-3.71 v 0 c 0.56,-1.23 1.13,-2.45 1.71,-3.66 v 0 c 0.58,-1.21 1.18,-2.42 1.8,-3.62 v 0 c 0.61,-1.2 1.24,-2.39 1.88,-3.57 v 0 c 0.64,-1.18 1.29,-2.35 1.96,-3.51 v 0 c 0.67,-1.16 1.35,-2.32 2.04,-3.46 v 0 c 0.69,-1.15 1.4,-2.28 2.12,-3.41 v 0 c 0.72,-1.13 1.45,-2.24 2.2,-3.35 v 0 c 0.75,-1.11 1.51,-2.21 2.28,-3.29 v 0 c 0.77,-1.09 1.56,-2.17 2.36,-3.24 v 0 c 0.8,-1.07 1.61,-2.13 2.44,-3.17 v 0 c 0.83,-1.05 1.66,-2.09 2.51,-3.12 v 0 c 0.85,-1.03 1.71,-2.05 2.58,-3.05 v 0 c 0.87,-1 1.76,-2.01 2.65,-2.99 v 0 c 0.9,-0.98 1.8,-1.96 2.72,-2.92 v 0 c 0.92,-0.96 1.85,-1.92 2.79,-2.86 v 0 c 0.94,-0.94 1.89,-1.87 2.86,-2.79 v 0 c 0.96,-0.92 1.94,-1.83 2.92,-2.72 v 0 c 0.98,-0.9 1.98,-1.78 2.99,-2.65 v 0 c 1.01,-0.87 2.03,-1.74 3.05,-2.58 v 0 c 1.03,-0.85 2.07,-1.68 3.11,-2.51 v 0 c 1.05,-0.83 2.1,-1.64 3.17,-2.44 v 0 c 1.07,-0.8 2.15,-1.59 3.24,-2.36 v 0 c 1.09,-0.77 2.19,-1.53 3.29,-2.28 v 0 c 1.11,-0.75 2.23,-1.49 3.35,-2.21 v 0 c 2.25,-1.44 4.54,-2.84 6.86,-4.17 v 0 c 1.16,-0.67 2.33,-1.32 3.51,-1.96 v 0 c 1.18,-0.64 2.37,-1.27 3.57,-1.88 v 0 c 1.2,-0.61 2.4,-1.21 3.61,-1.8 v 0 c 1.21,-0.59 2.44,-1.16 3.66,-1.71 v 0 c 1.23,-0.55 2.47,-1.1 3.71,-1.62 v 0 c 1.24,-0.53 2.5,-1.04 3.76,-1.54 v 0 c 1.26,-0.5 2.53,-0.98 3.8,-1.45 v 0 c 1.28,-0.47 2.56,-0.92 3.85,-1.35 v 0 c 1.29,-0.44 2.59,-0.86 3.89,-1.27 v 0 c 1.3,-0.4 2.61,-0.8 3.93,-1.17 v 0 c 1.32,-0.38 2.64,-0.73 3.97,-1.08 v 0 c 1.33,-0.34 2.67,-0.67 4.01,-0.98 v 0 c 1.34,-0.31 2.69,-0.61 4.05,-0.88 v 0 c 1.36,-0.28 2.72,-0.53 4.08,-0.78 v 0 c 1.37,-0.24 2.74,-0.47 4.12,-0.68 v 0 c 1.38,-0.21 2.76,-0.41 4.15,-0.58 v 0 c 1.39,-0.18 2.78,-0.34 4.18,-0.48 v 0 c 1.4,-0.14 2.8,-0.27 4.21,-0.37 v 0 c 1.41,-0.11 2.82,-0.2 4.24,-0.27 v 0 c 1.42,-0.07 2.84,-0.13 4.27,-0.16 v 0 c 1.43,-0.03 2.86,-0.05 4.3,-0.05 z m -166.54,166.54 z"
             id="path277"
             inkscape:connector-curvature="0"
             style="fill:#fefefe;stroke:#fefefe;stroke-width:38.66999817;stroke-miterlimit:2.61313009" />
          <path
             class="fil5 str3"
             d="m 5709.16,1337.61 c -22.62,46.25 -52.81,94.99 -14.73,125.01 9.15,7.06 114.96,10.48 130.9,3.04 z m 28.53,62.15 c 0,0 -2.33,9.18 -2.14,12.52 0.2,3.58 11.51,10.71 14.15,12.25 7.23,3.89 6.56,7.14 -0.82,6.13 -41.9,0.15 -25.86,-28.19 -23.31,-39.07 -6.97,-16.62 8.92,3.95 12.11,8.17 z"
             id="path279"
             inkscape:connector-curvature="0"
             style="fill:#373736;stroke:#fefefe;stroke-width:38.66999817;stroke-miterlimit:2.61313009" />
          <path
             class="fil1"
             d="m 5736.12,1276.32 v 0 c 1.44,0 2.87,0.02 4.3,0.05 v 0 c 1.43,0.04 2.85,0.09 4.27,0.16 v 0 c 1.42,0.07 2.83,0.16 4.24,0.27 v 0 c 1.41,0.1 2.81,0.23 4.21,0.37 v 0 c 1.4,0.15 2.79,0.3 4.18,0.48 v 0 c 1.39,0.18 2.77,0.37 4.15,0.58 v 0 c 1.38,0.21 2.75,0.44 4.12,0.68 v 0 c 1.37,0.25 2.72,0.5 4.08,0.78 v 0 c 1.35,0.28 2.7,0.57 4.05,0.88 v 0 c 1.34,0.31 2.68,0.64 4.01,0.98 v 0 c 1.33,0.34 2.65,0.7 3.97,1.08 v 0 c 1.32,0.38 2.63,0.76 3.93,1.17 v 0 c 1.31,0.41 2.6,0.83 3.89,1.27 v 0 c 1.29,0.43 2.57,0.89 3.85,1.35 v 0 c 1.28,0.47 2.54,0.95 3.8,1.45 v 0 c 1.26,0.5 2.51,1.01 3.76,1.54 v 0 c 1.24,0.53 2.48,1.07 3.71,1.62 v 0 c 1.23,0.55 2.45,1.13 3.66,1.71 v 0 c 1.21,0.58 2.42,1.18 3.61,1.8 v 0 c 1.2,0.61 2.39,1.24 3.57,1.88 v 0 c 1.18,0.64 2.35,1.3 3.51,1.96 v 0 c 2.32,1.34 4.61,2.73 6.86,4.17 v 0 c 1.12,0.72 2.24,1.45 3.35,2.21 v 0 c 1.11,0.75 2.21,1.51 3.29,2.28 v 0 c 1.09,0.77 2.17,1.56 3.24,2.36 v 0 c 1.07,0.8 2.13,1.61 3.17,2.44 v 0 c 1.05,0.83 2.09,1.66 3.11,2.51 v 0 c 1.03,0.85 2.04,1.71 3.05,2.58 v 0 c 1.01,0.87 2.01,1.76 2.99,2.65 v 0 c 0.98,0.9 1.96,1.8 2.92,2.72 v 0 c 0.96,0.92 1.91,1.85 2.86,2.79 v 0 c 0.94,0.94 1.87,1.89 2.79,2.86 v 0 c 0.92,0.96 1.83,1.94 2.72,2.92 v 0 c 0.9,0.99 1.78,1.99 2.65,2.99 v 0 c 0.87,1.01 1.73,2.03 2.58,3.05 v 0 c 0.85,1.03 1.68,2.07 2.51,3.12 v 0 c 0.83,1.05 1.63,2.1 2.44,3.17 v 0 c 0.8,1.07 1.59,2.15 2.36,3.24 v 0 c 0.77,1.09 1.53,2.19 2.28,3.29 v 0 c 0.75,1.11 1.48,2.23 2.2,3.35 v 0 c 0.72,1.13 1.43,2.26 2.12,3.41 v 0 c 0.69,1.14 1.38,2.3 2.05,3.46 v 0 c 0.67,1.16 1.32,2.33 1.96,3.51 v 0 c 0.64,1.18 1.27,2.37 1.88,3.57 v 0 c 0.61,1.2 1.21,2.4 1.8,3.62 v 0 c 0.59,1.21 1.15,2.44 1.71,3.66 v 0 c 0.56,1.23 1.1,2.47 1.62,3.71 v 0 c 0.53,1.25 1.04,2.5 1.54,3.76 v 0 c 0.5,1.26 0.98,2.53 1.45,3.81 v 0 c 0.47,1.28 0.92,2.56 1.35,3.85 v 0 c 0.44,1.29 0.86,2.59 1.26,3.89 v 0 c 0.41,1.3 0.8,2.62 1.17,3.93 v 0 c 0.38,1.32 0.73,2.64 1.08,3.97 v 0 c 0.34,1.33 0.67,2.67 0.98,4.01 v 0 c 0.31,1.34 0.61,2.69 0.88,4.05 v 0 c 0.28,1.36 0.53,2.72 0.78,4.08 v 0 c 0.24,1.37 0.47,2.74 0.68,4.12 v 0 c 0.21,1.38 0.4,2.76 0.58,4.15 v 0 c 0.18,1.39 0.34,2.78 0.48,4.18 v 0 c 0.14,1.4 0.26,2.8 0.37,4.21 v 0 c 0.1,1.41 0.19,2.82 0.27,4.25 v 0 c 0.07,1.42 0.13,2.84 0.16,4.27 v 0 c 0.04,1.43 0.05,2.86 0.05,4.3 v 0 0 1.01 0.06 0.95 0.12 c -0.18,21.99 -3.28,39.96 -11.51,60.44 -21.66,53.82 -76.92,148.52 -153.04,268.64 l -1.95,2.72 -2.01,-2.72 c -76.13,-120.12 -131.38,-214.82 -153.04,-268.64 -8.23,-20.48 -11.33,-38.45 -11.51,-60.44 v -0.12 l -0.01,-0.95 v -0.06 -1.01 c 0,-1.44 0.02,-2.87 0.05,-4.3 v 0 c 0.04,-1.43 0.09,-2.85 0.16,-4.27 v 0 c 0.07,-1.42 0.16,-2.83 0.27,-4.25 v 0 c 0.11,-1.41 0.23,-2.81 0.37,-4.21 v 0 c 0.14,-1.4 0.3,-2.8 0.48,-4.18 v 0 c 0.18,-1.39 0.37,-2.77 0.58,-4.15 v 0 c 0.21,-1.38 0.44,-2.75 0.68,-4.12 v 0 c 0.24,-1.37 0.5,-2.73 0.78,-4.08 v 0 c 0.28,-1.36 0.57,-2.71 0.88,-4.05 v 0 c 0.31,-1.34 0.64,-2.68 0.98,-4.01 v 0 c 0.35,-1.33 0.7,-2.65 1.08,-3.97 v 0 c 0.38,-1.32 0.76,-2.63 1.17,-3.93 v 0 c 0.41,-1.3 0.83,-2.6 1.26,-3.89 v 0 c 0.44,-1.29 0.89,-2.57 1.35,-3.85 v 0 c 0.47,-1.28 0.95,-2.54 1.45,-3.81 v 0 c 0.5,-1.26 1.01,-2.51 1.54,-3.76 v 0 c 0.53,-1.24 1.07,-2.48 1.62,-3.71 v 0 c 0.56,-1.23 1.13,-2.45 1.71,-3.66 v 0 c 0.58,-1.21 1.18,-2.42 1.8,-3.62 v 0 c 0.61,-1.2 1.24,-2.39 1.88,-3.57 v 0 c 0.64,-1.18 1.29,-2.35 1.96,-3.51 v 0 c 0.67,-1.16 1.35,-2.32 2.04,-3.46 v 0 c 0.69,-1.15 1.4,-2.28 2.12,-3.41 v 0 c 0.72,-1.13 1.45,-2.24 2.2,-3.35 v 0 c 0.75,-1.11 1.51,-2.21 2.28,-3.29 v 0 c 0.77,-1.09 1.56,-2.17 2.36,-3.24 v 0 c 0.8,-1.07 1.61,-2.13 2.44,-3.17 v 0 c 0.83,-1.05 1.66,-2.09 2.51,-3.12 v 0 c 0.85,-1.03 1.71,-2.05 2.58,-3.05 v 0 c 0.87,-1 1.76,-2.01 2.65,-2.99 v 0 c 0.9,-0.98 1.8,-1.96 2.72,-2.92 v 0 c 0.92,-0.96 1.85,-1.92 2.79,-2.86 v 0 c 0.94,-0.94 1.89,-1.87 2.86,-2.79 v 0 c 0.96,-0.92 1.94,-1.83 2.92,-2.72 v 0 c 0.98,-0.9 1.98,-1.78 2.99,-2.65 v 0 c 1.01,-0.87 2.03,-1.74 3.05,-2.58 v 0 c 1.03,-0.85 2.07,-1.68 3.11,-2.51 v 0 c 1.05,-0.83 2.1,-1.64 3.17,-2.44 v 0 c 1.07,-0.8 2.15,-1.59 3.24,-2.36 v 0 c 1.09,-0.77 2.19,-1.53 3.29,-2.28 v 0 c 1.11,-0.75 2.23,-1.49 3.35,-2.21 v 0 c 2.25,-1.44 4.54,-2.84 6.86,-4.17 v 0 c 1.16,-0.67 2.33,-1.32 3.51,-1.96 v 0 c 1.18,-0.64 2.37,-1.27 3.57,-1.88 v 0 c 1.2,-0.61 2.4,-1.21 3.61,-1.8 v 0 c 1.21,-0.59 2.44,-1.16 3.66,-1.71 v 0 c 1.23,-0.55 2.47,-1.1 3.71,-1.62 v 0 c 1.24,-0.53 2.5,-1.04 3.76,-1.54 v 0 c 1.26,-0.5 2.53,-0.98 3.8,-1.45 v 0 c 1.28,-0.47 2.56,-0.92 3.85,-1.35 v 0 c 1.29,-0.44 2.59,-0.86 3.89,-1.27 v 0 c 1.3,-0.4 2.61,-0.8 3.93,-1.17 v 0 c 1.32,-0.38 2.64,-0.73 3.97,-1.08 v 0 c 1.33,-0.34 2.67,-0.67 4.01,-0.98 v 0 c 1.34,-0.31 2.69,-0.61 4.05,-0.88 v 0 c 1.36,-0.28 2.72,-0.53 4.08,-0.78 v 0 c 1.37,-0.24 2.74,-0.47 4.12,-0.68 v 0 c 1.38,-0.21 2.76,-0.41 4.15,-0.58 v 0 c 1.39,-0.18 2.78,-0.34 4.18,-0.48 v 0 c 1.4,-0.14 2.8,-0.27 4.21,-0.37 v 0 c 1.41,-0.11 2.82,-0.2 4.24,-0.27 v 0 c 1.42,-0.07 2.84,-0.13 4.27,-0.16 v 0 c 1.43,-0.03 2.86,-0.05 4.3,-0.05 z m -166.54,166.54 z"
             id="path281"
             inkscape:connector-curvature="0"
             style="fill:#fefefe" />
          <path
             class="fil5"
             d="m 5709.16,1337.61 c -22.62,46.25 -52.81,94.99 -14.73,125.01 9.15,7.06 114.96,10.48 130.9,3.04 z m 28.53,62.15 c 0,0 -2.33,9.18 -2.14,12.52 0.2,3.58 11.51,10.71 14.15,12.25 7.23,3.89 6.56,7.14 -0.82,6.13 -41.9,0.15 -25.86,-28.19 -23.31,-39.07 -6.97,-16.62 8.92,3.95 12.11,8.17 z"
             id="path283"
             inkscape:connector-curvature="0"
             style="fill:#373736" />
          <path
             class="fil4"
             d="m 5963.21,1522.49 v 0 l 3.69,4.07 26.35,29.05 -42.07,8.45 -5.87,1.17 -5.88,1.18 c -15.93,33.83 -38.09,75.25 -65.54,123.13 -37.03,64.6 -83.71,140.95 -137.78,226.3 -54.06,-85.35 -100.74,-161.71 -137.78,-226.3 -37.27,-65.02 -64.78,-118.11 -80.22,-156.48 -5.79,-14.41 -9.77,-27.91 -12.33,-41.64 -2.56,-13.78 -3.72,-27.84 -3.84,-43.31 -1.57,-16.04 2.14,-39.35 6.88,-58.88 l -4.06,-4.47 -3.85,-4.23 -26.47,-29.12 63.09,-47.8 14.36,-10.88 v -0.01 l 22.55,-17.08 c 11.94,-11.29 25.31,-21.55 40.17,-30.87 37.93,-22.37 77.39,-33.91 121.48,-33.91 42.55,0.41 79.53,10.13 116.62,31.03 l 4.83,2.86 c 83.59,52.18 110.99,132.62 112.73,203.35 -0.13,15.47 -1.29,29.54 -3.85,43.31 -1.67,8.98 -3.95,17.87 -6.96,26.97 l 3.71,4.09 z"
             id="path285"
             inkscape:connector-curvature="0"
             style="fill:#2b2a29" />
          <path
             class="fil1"
             d="m 5736.12,1276.04 v 0 c 1.11,0 2.21,0.01 3.31,0.03 l 162.87,179.51 -0.01,0.14 c -1.88,0.49 -3.79,1.69 -6.53,3.63 -25.58,17.3 -67.02,65.49 -102.8,46.03 -11.23,-6.11 -29.01,-4.31 -33.93,3.48 -5.7,9.04 -4.06,14.31 7.67,26.04 7.93,8.12 13.53,11.03 25.9,13.17 9.66,1.88 27.63,6.32 40.79,11.94 6.33,2.7 14.69,8.26 23.66,15.16 -28.37,52.47 -69.21,120.11 -118.96,198.62 l -1.95,2.72 -2.01,-2.72 c -48.79,-76.98 -89,-143.52 -117.3,-195.55 l 30.86,-85.2 -75.02,-82.66 0.27,-1.37 v 0 c 0.28,-1.35 0.57,-2.7 0.88,-4.04 h 0.01 c 0.3,-1.35 0.63,-2.68 0.97,-4.01 v 0 c 0.34,-1.33 0.7,-2.66 1.07,-3.97 h 0.01 c 0.37,-1.32 0.76,-2.63 1.16,-3.94 v 0 c 0.41,-1.3 0.83,-2.6 1.27,-3.89 v 0 c 0.43,-1.29 0.89,-2.57 1.35,-3.85 h 0.01 c 0.47,-1.28 0.95,-2.54 1.44,-3.81 v 0 c 0.5,-1.26 1.01,-2.51 1.54,-3.76 v 0 c 0.53,-1.25 1.07,-2.48 1.62,-3.71 v 0 c 0.55,-1.23 1.12,-2.45 1.71,-3.66 v 0 c 0.58,-1.21 1.18,-2.42 1.79,-3.61 h 0.01 c 0.61,-1.2 1.24,-2.39 1.88,-3.57 v 0 c 0.64,-1.18 1.29,-2.35 1.96,-3.51 v 0 c 0.67,-1.16 1.35,-2.31 2.04,-3.46 v 0 c 0.69,-1.14 1.4,-2.28 2.12,-3.41 v 0 c 0.72,-1.13 1.45,-2.24 2.21,-3.35 v 0 c 0.75,-1.11 1.51,-2.21 2.28,-3.3 v 0 c 0.77,-1.09 1.56,-2.17 2.35,-3.23 h 0.01 c 0.8,-1.07 1.61,-2.12 2.43,-3.17 v 0 c 0.83,-1.05 1.66,-2.09 2.51,-3.12 v 0 c 0.85,-1.03 1.71,-2.05 2.58,-3.05 v 0 c 0.87,-1.01 1.76,-2.01 2.65,-2.99 v 0 c 0.89,-0.98 1.8,-1.96 2.72,-2.92 v 0 c 0.92,-0.97 1.85,-1.92 2.79,-2.86 v 0 c 0.94,-0.94 1.89,-1.87 2.86,-2.79 v 0 c 0.97,-0.92 1.94,-1.83 2.93,-2.72 v 0 c 0.98,-0.9 1.98,-1.78 2.99,-2.65 v 0 c 1.01,-0.87 2.03,-1.74 3.05,-2.58 v 0 c 1.03,-0.85 2.07,-1.68 3.11,-2.51 v 0 c 1.05,-0.82 2.11,-1.63 3.18,-2.43 v 0 c 1.07,-0.8 2.15,-1.59 3.24,-2.36 v 0 c 1.09,-0.77 2.19,-1.54 3.29,-2.28 v 0 c 1.11,-0.75 2.23,-1.49 3.35,-2.2 v 0 c 2.25,-1.44 4.54,-2.84 6.86,-4.17 v 0 c 1.17,-0.67 2.34,-1.32 3.51,-1.96 v 0 c 1.18,-0.64 2.37,-1.27 3.57,-1.88 v 0 c 1.19,-0.62 2.4,-1.21 3.61,-1.8 v 0 c 1.21,-0.59 2.43,-1.15 3.66,-1.71 v 0 c 1.23,-0.55 2.47,-1.1 3.71,-1.62 v 0 c 1.24,-0.52 2.49,-1.04 3.76,-1.54 v 0 c 1.26,-0.49 2.53,-0.98 3.8,-1.44 h 0.01 c 1.27,-0.46 2.55,-0.92 3.84,-1.36 v 0 c 1.29,-0.44 2.58,-0.86 3.89,-1.26 v 0 c 1.31,-0.41 2.62,-0.8 3.93,-1.17 v 0 c 1.32,-0.38 2.64,-0.73 3.97,-1.08 h 0.01 c 1.33,-0.34 2.67,-0.67 4.01,-0.98 v 0 c 1.35,-0.31 2.7,-0.61 4.05,-0.88 v 0 c 1.36,-0.28 2.72,-0.53 4.08,-0.78 v 0 c 1.37,-0.24 2.74,-0.47 4.12,-0.68 v 0 c 1.38,-0.21 2.76,-0.4 4.15,-0.58 v 0 c 1.39,-0.17 2.78,-0.33 4.18,-0.48 v 0 c 1.4,-0.14 2.8,-0.27 4.21,-0.37 v 0 c 1.41,-0.11 2.82,-0.2 4.24,-0.27 v 0 c 1.42,-0.07 2.84,-0.13 4.27,-0.16 v 0 c 1.42,-0.03 2.86,-0.05 4.29,-0.05 z"
             id="path287"
             inkscape:connector-curvature="0"
             style="fill:#fefefe" />
          <path
             class="fil4"
             d="m 5709.07,1337.52 c -22.62,46.25 -52.71,94.79 -14.64,124.82 9.15,7.06 114.96,10.48 130.9,3.03 l -116.26,-127.86 z m 28.62,61.96 c 0,0 -2.33,9.17 -2.14,12.52 0.2,3.58 11.51,10.71 14.15,12.24 7.23,3.89 6.56,7.15 -0.82,6.13 -41.9,0.15 -25.86,-28.19 -23.31,-39.07 -6.97,-16.62 8.92,3.95 12.11,8.17 z"
             id="path289"
             inkscape:connector-curvature="0"
             style="fill:#2b2a29" />
        </g>
        <polygon
           class="fil4 str4"
           points="5656.82,2019.13 5656.82,1976.11 5813.44,1976.11 5813.44,2019.13 "
           id="polygon293"
           style="fill:#2b2a29;stroke:#2b2a29;stroke-width:6.44999981;stroke-miterlimit:2.61313009" />
        <polygon
           class="fil4 str5"
           points="5649.44,1908.34 5578.49,2019.26 5512.75,2019.26 5589.5,1908.58 5515.05,1797.87 5577.15,1797.87 "
           id="polygon295"
           style="fill:#2b2a29;stroke:#2b2a29;stroke-width:6.44999981;stroke-miterlimit:2.61313009" />
      </g>
      <path
         class="fil6 str6"
         d="m 6064.82,2055.19 h 11.37 v 64.2 h -11.37 v -27.06 h -15.5 v 27.06 h -11.28 v -64.2 h 11.28 v 26.41 h 15.5 z m 55.69,64.2 -2.57,-11.65 h -15.04 l -2.57,11.65 h -11.74 l 15.78,-64.2 h 12.11 l 15.78,64.2 h -11.74 z m -15.32,-22.38 h 10.46 l -2.57,-11.93 c -0.49,-2.45 -1.34,-7.7 -2.57,-15.78 h -0.27 c -0.86,6.66 -1.68,11.92 -2.48,15.78 z m 55.6,23.48 c -6.06,0 -10.78,-1.76 -14.17,-5.27 -3.39,-3.51 -5.09,-8.55 -5.09,-15.09 v -25.68 c 0,-6.6 1.7,-11.68 5.09,-15.22 3.39,-3.55 8.12,-5.32 14.17,-5.32 6.11,0 10.87,1.76 14.26,5.27 3.39,3.51 5.24,8.55 5.55,15.09 h -11.28 c -0.18,-3.3 -0.98,-5.7 -2.39,-7.2 -1.41,-1.5 -3.48,-2.25 -6.23,-2.25 -5.02,0 -7.52,3.21 -7.52,9.63 v 25.68 c 0,6.3 2.54,9.45 7.62,9.45 2.81,0 4.92,-0.75 6.33,-2.25 1.41,-1.5 2.23,-3.84 2.48,-7.02 h 11.28 c -0.24,6.48 -2.09,11.47 -5.55,14.95 -3.45,3.48 -8.3,5.23 -14.54,5.23 z m 62.66,-1.1 -13.48,-26.14 -3.94,6.15 v 19.99 h -11.1 v -64.2 h 11.1 v 26.32 l 3.76,-7.52 10.73,-18.8 h 13.02 l -17.25,27.97 20,36.23 z m 53.95,-3.85 c -3.49,3.42 -8.22,5.14 -14.22,5.14 -5.99,0 -10.71,-1.72 -14.17,-5.14 -3.45,-3.42 -5.21,-8.19 -5.27,-14.31 h 11.56 c 0.06,5.63 2.72,8.44 7.98,8.44 2.51,0 4.4,-0.66 5.69,-1.97 1.29,-1.31 1.93,-3.04 1.93,-5.18 0,-1.77 -0.64,-3.45 -1.93,-5.04 -1.28,-1.59 -2.87,-2.95 -4.77,-4.08 -1.89,-1.13 -3.97,-2.45 -6.23,-3.94 -2.26,-1.5 -4.34,-3.01 -6.24,-4.54 -1.89,-1.53 -3.48,-3.55 -4.77,-6.06 -1.28,-2.51 -1.92,-5.26 -1.92,-8.25 0,-4.89 1.64,-8.89 4.91,-12.01 3.27,-3.12 7.69,-4.68 13.25,-4.68 5.75,0 10.26,1.65 13.53,4.95 3.27,3.3 4.94,7.83 5,13.58 h -11.56 c -0.06,-5.08 -2.39,-7.62 -6.97,-7.62 -2.08,0 -3.71,0.55 -4.91,1.65 -1.19,1.1 -1.79,2.57 -1.79,4.4 0,1.53 0.47,2.93 1.42,4.22 0.95,1.28 2.2,2.45 3.76,3.48 1.56,1.04 3.27,2.08 5.14,3.12 1.86,1.04 3.71,2.2 5.55,3.48 1.84,1.29 3.53,2.69 5.09,4.22 1.56,1.53 2.81,3.43 3.76,5.69 0.95,2.26 1.42,4.77 1.42,7.52 0,5.2 -1.74,9.51 -5.23,12.93 z m 36.43,-60.35 c 6.48,0 11.53,1.88 15.14,5.64 3.61,3.76 5.41,9 5.41,15.73 0,6.73 -1.8,11.95 -5.41,15.68 -3.61,3.73 -8.65,5.6 -15.14,5.6 h -6.51 v 21.55 h -11.28 v -64.2 z m -0.09,32.01 c 6.05,0 9.08,-3.55 9.08,-10.64 0,-7.09 -3.03,-10.64 -9.08,-10.64 h -6.42 v 21.28 z m 57.43,32.19 -2.57,-11.65 h -15.04 l -2.57,11.65 h -11.74 l 15.78,-64.2 h 12.11 l 15.78,64.2 h -11.74 z m -15.32,-22.38 h 10.46 l -2.57,-11.93 c -0.49,-2.45 -1.34,-7.7 -2.57,-15.78 h -0.27 c -0.86,6.66 -1.68,11.92 -2.48,15.78 z m 55.6,23.48 c -6.06,0 -10.78,-1.76 -14.17,-5.27 -3.39,-3.51 -5.09,-8.55 -5.09,-15.09 v -25.68 c 0,-6.6 1.7,-11.68 5.09,-15.22 3.39,-3.55 8.12,-5.32 14.17,-5.32 6.11,0 10.87,1.76 14.26,5.27 3.39,3.51 5.24,8.55 5.55,15.09 h -11.28 c -0.18,-3.3 -0.98,-5.7 -2.39,-7.2 -1.41,-1.5 -3.48,-2.25 -6.23,-2.25 -5.02,0 -7.52,3.21 -7.52,9.63 v 25.68 c 0,6.3 2.54,9.45 7.62,9.45 2.81,0 4.92,-0.75 6.33,-2.25 1.41,-1.5 2.23,-3.84 2.48,-7.02 h 11.28 c -0.24,6.48 -2.09,11.47 -5.55,14.95 -3.45,3.48 -8.3,5.23 -14.54,5.23 z m 45.42,-11.74 h 21.92 v 10.64 h -33.2 v -64.2 h 32.29 v 10.64 h -21.01 v 15.87 h 19.26 v 10.27 h -19.26 z"
         id="path299"
         inkscape:connector-curvature="0"
         style="fill:#2b2a29;fill-rule:nonzero;stroke:#2b2a29;stroke-width:2.57999992;stroke-miterlimit:2.61313009" />
      <path
         class="fil6"
         d="m 6105.82,1678.16 c 5.95,2.98 10.6,7.38 13.93,13.19 3.33,5.82 5,12.34 5,19.57 0,13.19 -4.01,23.75 -12.02,31.7 -8.01,7.94 -18.47,11.91 -31.38,11.91 h -44.88 v -148.9 h 43.61 c 11.77,0 21.27,3.79 28.51,11.38 7.23,7.58 10.85,17.62 10.85,30.1 0,13.61 -4.54,23.97 -13.61,31.06 z m -29.78,-47.86 h -13.4 v 36.59 h 14.25 c 10.64,0 15.95,-6.24 15.95,-18.72 0,-11.92 -5.6,-17.87 -16.8,-17.87 z m 1.28,99.55 c 13.76,0 20.63,-6.31 20.63,-18.93 0,-6.38 -1.81,-11.24 -5.42,-14.57 -3.62,-3.34 -8.76,-5 -15.42,-5 h -14.47 v 38.5 z m 111.04,27.23 c -14.75,0 -26.27,-4.47 -34.57,-13.4 -8.3,-8.93 -12.45,-21.27 -12.45,-37.01 v -53.18 c 0,-15.74 4.15,-28.08 12.45,-37.01 8.3,-8.93 19.82,-13.4 34.57,-13.4 14.6,0 26.06,4.47 34.35,13.4 8.3,8.93 12.44,21.27 12.44,37.01 v 53.18 c 0,15.74 -4.15,28.08 -12.44,37.01 -8.3,8.93 -19.75,13.4 -34.35,13.4 z m 0,-25.32 c 13.19,0 19.78,-8.37 19.78,-25.1 v -53.18 c 0,-16.73 -6.59,-25.1 -19.78,-25.1 -13.33,0 -20,8.37 -20,25.1 v 53.18 c 0,16.74 6.66,25.1 20,25.1 z m 135.29,22.76 -26.59,-51.9 h -11.91 v 51.9 h -26.16 v -148.9 h 40.84 c 14.6,0 25.92,4.22 33.93,12.66 8.01,8.44 12.02,20.24 12.02,35.42 0,21.98 -7.8,36.73 -23.4,44.25 l 29.99,56.58 h -28.72 z m -38.5,-124.02 v 47.22 h 14.47 c 12.91,0 19.36,-7.94 19.36,-23.83 0,-15.6 -6.45,-23.4 -19.36,-23.4 h -14.47 z m 83.6,-24.89 h 26.16 v 148.9 h -26.16 z m 119.98,0 h 25.74 v 148.9 h -25.95 l -28.72,-64.67 c -8.37,-21.7 -12.98,-33.82 -13.83,-36.38 l -0.64,0.64 c 2.13,18.72 3.19,37.94 3.19,57.65 v 42.76 h -25.74 v -148.9 h 25.95 l 31.06,69.98 c 1.42,3.55 3.51,8.9 6.28,16.06 2.76,7.16 4.64,11.95 5.64,14.36 l 0.64,-0.64 c -2.41,-19 -3.61,-37.16 -3.61,-54.46 v -45.31 z m 95.09,151.46 c -14.32,0 -25.49,-4.11 -33.51,-12.34 -8.01,-8.23 -12.02,-19.93 -12.02,-35.1 v -59.14 c 0,-15.32 4.01,-27.05 12.02,-35.2 8.01,-8.16 19.18,-12.23 33.51,-12.23 13.76,0 24.46,4.01 32.12,12.02 7.66,8.01 11.77,19.6 12.34,34.78 h -26.16 c -0.28,-7.52 -1.91,-12.98 -4.89,-16.38 -2.98,-3.4 -7.45,-5.11 -13.4,-5.11 -12.34,0 -18.51,7.38 -18.51,22.12 v 59.14 c 0,14.75 6.31,22.12 18.93,22.12 12.91,0 19.36,-7.23 19.36,-21.7 v -14.46 h -20.63 v -23.19 h 46.16 v 37.65 c -0.28,15.03 -4.4,26.63 -12.34,34.78 -7.94,8.15 -18.93,12.23 -32.97,12.23 z"
         id="path301"
         inkscape:connector-curvature="0"
         style="fill:#2b2a29;fill-rule:nonzero" />
      <path
         class="fil6"
         d="m 6070.08,1790.58 c 13.33,0 23.61,3.9 30.85,11.7 7.23,7.8 10.92,18.86 11.06,33.18 0,14.89 -3.62,26.31 -10.85,34.25 -7.23,7.94 -17.59,11.91 -31.06,11.91 h -24.04 v 57.86 h -9.57 v -148.9 z m 0,81.9 c 21.41,0 32.12,-12.34 32.12,-37.01 0.14,-11.63 -2.52,-20.49 -7.98,-26.59 -5.46,-6.1 -13.51,-9.15 -24.14,-9.15 h -24.04 v 72.75 z m 72.75,57.86 h 54.88 v 9.15 h -64.46 v -148.9 h 9.57 v 139.76 z m 139.54,9.15 -9.78,-38.08 h -49.56 l -9.78,38.08 h -10.21 l 39.35,-148.9 h 10.85 l 39.35,148.9 h -10.21 z m -57.01,-47.01 h 44.88 l -15.53,-61.05 c -0.99,-3.68 -2.27,-8.83 -3.83,-15.42 -1.56,-6.6 -2.55,-10.89 -2.98,-12.87 h -0.21 c -0.43,1.98 -1.42,6.27 -2.98,12.87 -1.56,6.59 -2.84,11.74 -3.83,15.42 l -15.53,61.05 z m 120.4,49.56 c -11.91,0 -21.38,-3.83 -28.4,-11.49 -7.02,-7.66 -10.53,-18.58 -10.53,-32.76 v -65.52 c 0,-14.18 3.48,-25.1 10.43,-32.76 6.95,-7.66 16.31,-11.49 28.08,-11.49 12.05,0 21.52,3.58 28.4,10.74 6.88,7.16 10.74,17.48 11.59,30.95 h -9.36 c -1.7,-21.98 -11.91,-32.97 -30.63,-32.97 -9.08,0 -16.2,3.01 -21.38,9.04 -5.18,6.03 -7.76,14.85 -7.76,26.48 v 65.52 c 0,11.63 2.66,20.46 7.98,26.48 5.32,6.03 12.52,9.04 21.59,9.04 19.01,0 29.43,-10.99 31.27,-32.97 h 9.36 c -0.99,13.47 -4.96,23.79 -11.91,30.95 -6.95,7.16 -16.52,10.74 -28.72,10.74 z m 75.52,-11.49 h 59.35 v 8.93 h -68.92 v -148.9 h 67.43 v 8.93 h -57.86 v 59.77 h 53.82 v 8.93 h -53.82 v 62.33 z"
         id="path303"
         inkscape:connector-curvature="0"
         style="fill:#2b2a29;fill-rule:nonzero" />
      <polygon
         class="fil4"
         points="6036.47,2022.95 6036.47,1972.98 6629.45,1972.98 6629.45,2022.95 "
         id="polygon305"
         style="fill:#2b2a29" />
    </g>
  </g>
</svg>
