<?xml version="1.0" encoding="UTF-8" standalone="no"?>
<!-- Creator: CorelDRAW 2018 (64-Bit) -->

<svg
   xmlns:dc="http://purl.org/dc/elements/1.1/"
   xmlns:cc="http://creativecommons.org/ns#"
   xmlns:rdf="http://www.w3.org/1999/02/22-rdf-syntax-ns#"
   xmlns:svg="http://www.w3.org/2000/svg"
   xmlns="http://www.w3.org/2000/svg"
   xmlns:sodipodi="http://sodipodi.sourceforge.net/DTD/sodipodi-0.dtd"
   xmlns:inkscape="http://www.inkscape.org/namespaces/inkscape"
   xml:space="preserve"
   width="3.05911in"
   height="2.03724in"
   version="1.1"
   style="shape-rendering:geometricPrecision; text-rendering:geometricPrecision; image-rendering:optimizeQuality; fill-rule:evenodd; clip-rule:evenodd"
   viewBox="0 0 2166 1442.47"
   id="svg32"
   sodipodi:docname="WhiteOnBlackWithText.svg"
   inkscape:version="0.92.4 (unknown)"><metadata
   id="metadata36"><rdf:RDF><cc:Work
       rdf:about=""><dc:format>image/svg+xml</dc:format><dc:type
         rdf:resource="http://purl.org/dc/dcmitype/StillImage" /><dc:title></dc:title></cc:Work></rdf:RDF></metadata><sodipodi:namedview
   pagecolor="#ffffff"
   bordercolor="#666666"
   borderopacity="1"
   objecttolerance="10"
   gridtolerance="10"
   guidetolerance="10"
   inkscape:pageopacity="0"
   inkscape:pageshadow="2"
   inkscape:window-width="2804"
   inkscape:window-height="1664"
   id="namedview34"
   showgrid="false"
   inkscape:zoom="4.8267917"
   inkscape:cx="163.76452"
   inkscape:cy="89.176664"
   inkscape:window-x="0"
   inkscape:window-y="55"
   inkscape:window-maximized="0"
   inkscape:current-layer="svg32" />
 <defs
   id="defs4">
  <style
   type="text/css"
   id="style2">
   <![CDATA[
    .str0 {stroke:#FEFEFE;stroke-width:29.5;stroke-miterlimit:2.61313}
    .fil1 {fill:#FEFEFE}
    .fil3 {fill:#373736}
    .fil0 {fill:#2B2A29}
    .fil2 {fill:#FEFEFE;fill-rule:nonzero}
   ]]>
  </style>
 </defs>
 <g
   id="Layer_x0020_1">
  <metadata
   id="CorelCorpID_0Corel-Layer" />
  <rect
   class="fil0"
   width="2166"
   height="1442.47"
   id="rect7" />
  <g
   id="_2995417125456">
   <polygon
   class="fil1"
   points="1009.07,1014.78 957.11,935.38 921.61,935.38 975.12,1014.95 920.01,1094.43 958.13,1094.43 "
   id="polygon9" />
   <polygon
   class="fil1"
   points="1142.49,1065.52 1026.94,1065.52 1026.94,1094.41 1142.49,1094.41 "
   id="polygon11" />
  </g>
  <g
   id="_2995406452912">
   <path
   class="fil2"
   d="M1084.72 432.63l4.71 0.11 0 -0.05 0.46 0.06 4.21 0.15 0 -0.03c2.73,0.2 5.44,0.31 8.17,0.54l0.17 0.06c2.42,0.23 4.81,0.45 7.23,0.74l-0.01 0.04c0.86,0.08 1.86,0.32 2.69,0.32l7.23 1.13 -0.01 0.05 2.31 0.42 0.17 0c2.3,0.46 4.58,0.96 6.87,1.48l0.37 0.04 4.56 1.13 -0.01 0.05 4.76 1.24 -0.01 0.04c1.62,0.24 5.19,1.54 6.91,2.09l0.17 0 2.12 0.7 -0.03 0.08 0.2 0.04c5.29,1.83 10.44,3.76 15.58,5.98l0.11 0.11c2.14,0.95 4.25,1.88 6.37,2.88l-0.03 0.07 0.21 0.05c2.86,1.4 5.57,2.75 8.38,4.26l-0.01 0.03 0.13 0.03 4.02 2.26 -0.02 0.04 4.22 2.44 -0.02 0.03 4.03 2.47 -0.02 0.03c2.98,0.89 19.43,14.12 22.68,16.92l-0.04 0.05 0.16 0.06c0.84,0.73 2.75,2.6 3.56,3.14l2.28 2.12 0.19 0c2.08,2.11 4.2,4.2 6.25,6.33l0.18 0 2.94 3.27 0.2 0 2.86 3.34 0.11 0 2.81 3.41 0.25 0c2.76,3.55 5.47,7.02 8.13,10.63l0.25 0 2.45 3.67 0.21 0 2.36 3.73 0.2 0 2.27 3.79 0.21 0 2.18 3.85 0.19 0 2.09 3.9 0.24 0 2 3.96 0.23 0 1.9 4.01 0.18 0c1.21,2.72 2.41,5.47 3.64,8.18l0.38 0 1.61 4.17 0.23 0c1.97,5.49 3.98,10.94 5.81,16.47l0.11 0.17 0.68 2.14 0 0.17 0.78 2.55 0.45 0 0.99 4.43 0.32 0 0.88 4.47 0.29 0 0.77 4.51 0.28 0 1.34 9.12 0.47 0 0.88 9.26 0.44 0c0.34,6.59 0.69,13.12 0.9,19.71 0.02,2.21 0.06,4.43 0.04,6.64l0.06 0 0 0.13 -0.06 0.11c-0.11,12.91 -1.08,24.68 -3.23,36.24 -1.05,5.61 -2.36,11.16 -3.98,16.74l34.66 38.2 -54.72 10.99c-12.23,25.56 -28.65,56.14 -48.65,91.04 -28.64,49.95 -64.71,108.94 -106.48,174.85 -4.86,6.64 -9.6,13.4 -14.4,20.1l-14.83 -20.1c-41.77,-65.91 -77.84,-124.9 -106.48,-174.85 -28.77,-50.18 -50.11,-91.44 -62.28,-121.68 -4.86,-12.09 -8.22,-23.54 -10.41,-35.29 -2.15,-11.55 -3.12,-23.32 -3.23,-36.24l-0.06 -0.11 0 -0.13 0.06 0 -0.07 -1.11 0 -1.11c0,-9.79 0.76,-19.77 2.26,-29.69 0.59,-3.9 1.3,-7.81 2.13,-11.68l-0.97 -1.85 -27.69 -30.45 70.24 -53.04 0.48 -0.61 0.25 0 2.81 -3.41 0.11 0 2.86 -3.34 0.2 0 2.93 -3.27 0.19 0c2.05,-2.13 4.17,-4.23 6.25,-6.33l0.19 0c1.93,-1.81 3.85,-3.51 5.84,-5.25l0.16 -0.06 -0.04 -0.05c3.61,-3.1 7.13,-5.89 10.92,-8.76l0.17 -0.17c2.49,-1.84 5,-3.62 7.55,-5.37l0.13 -0.04c0.47,-0.32 3.57,-2.47 3.91,-2.57l-0.02 -0.03 4.05 -2.48 4.18 -2.45 -0.02 -0.04 4.02 -2.26 0.13 -0.03 -0.01 -0.03 4.07 -2.17 0.18 -0.04 4.12 -2.04 0.21 -0.05 -0.03 -0.07c0.74,-0.35 3.68,-1.81 4.32,-1.96l-0.01 -0.03 2.04 -0.91 0.17 -0.11c2.15,-0.93 4.31,-1.8 6.48,-2.67l0.18 -0.04 4.33 -1.66c1.37,-0.27 5.29,-1.82 6.85,-2.36l0.17 -0.11 2.14 -0.68 0.36 -0.06c1.13,-0.35 3.41,-1.15 4.47,-1.31l-0.01 -0.03c1.21,-0.33 3.55,-1.1 4.7,-1.26l-0.01 -0.03 4.56 -1.13 0.37 -0.04c2.29,-0.51 4.57,-1.02 6.87,-1.48l0.17 0 2.42 -0.43 -0.01 -0.04c1.09,-0.19 3.96,-0.51 4.85,-0.8 1.6,-0.23 3.36,-0.51 4.96,-0.66l-0.01 -0.04c2.41,-0.29 4.81,-0.51 7.23,-0.74l0.17 -0.06c2.73,-0.23 5.44,-0.35 8.16,-0.54l0.01 0.03 4.21 -0.15 0.46 -0.06 0 0.05 4.64 -0.05 0.06 -0.06zm173.23 255.94l-2.83 -3.12c2.29,-6.94 4.03,-13.73 5.31,-20.58 1.95,-10.51 2.84,-21.24 2.94,-33.04 -2.02,-56.08 -22.23,-115.32 -86,-155.13l-3.68 -2.18c-28.29,-15.95 -56.51,-23.36 -88.96,-23.67 -33.64,0 -63.74,8.81 -92.67,25.87 -11.34,7.11 -21.54,14.94 -30.65,23.55l-17.2 13.03 -0 0.01 -10.96 8.3 -48.13 36.47 20.19 22.21 2.93 3.23 3.1 3.41c-3.62,14.9 -6.45,32.68 -5.25,44.92 0.09,11.8 0.97,22.53 2.93,33.04 1.95,10.47 4.99,20.77 9.41,31.76 11.78,29.27 32.76,69.78 61.2,119.37 28.26,49.28 63.86,107.53 105.11,172.64 41.25,-65.12 76.85,-123.36 105.11,-172.64 20.94,-36.53 37.84,-68.12 50,-93.93l4.48 -0.9 4.47 -0.9 32.09 -6.45 -20.1 -22.16 -2.82 -3.1 0 -0z"
   id="path14" />
   <path
   class="fil1 str0"
   d="M1084.72 500.78l0 0c1.1,0 2.19,0.01 3.28,0.04l0 0c1.09,0.03 2.18,0.07 3.26,0.12l0 0c1.08,0.06 2.16,0.12 3.24,0.21l0 0c1.07,0.08 2.15,0.18 3.21,0.28l0 0c1.06,0.11 2.13,0.23 3.19,0.37l0 0c1.06,0.13 2.11,0.28 3.16,0.44l0 0c1.05,0.16 2.1,0.33 3.14,0.52l0 0c1.04,0.19 2.08,0.38 3.11,0.6l0 0c1.03,0.21 2.06,0.43 3.09,0.67l0 0c1.02,0.24 2.04,0.49 3.06,0.75l0 0c1.01,0.26 2.02,0.54 3.03,0.82l0 0c1,0.29 2,0.58 3,0.89l0 0c1,0.31 1.98,0.63 2.97,0.96l0 0c0.98,0.33 1.96,0.68 2.94,1.03l0 0c0.97,0.36 1.94,0.72 2.9,1.1l0 0c0.96,0.38 1.92,0.77 2.87,1.17l0 0c0.95,0.4 1.89,0.81 2.83,1.24l0 0c0.94,0.42 1.87,0.86 2.79,1.3l0 0c0.93,0.45 1.84,0.9 2.76,1.37l0 0c0.91,0.47 1.82,0.94 2.72,1.44l0 0c0.9,0.49 1.79,0.99 2.68,1.5l0 0c1.77,1.02 3.52,2.08 5.24,3.18l0 0c0.86,0.55 1.71,1.11 2.55,1.68l0 0c0.84,0.57 1.68,1.15 2.51,1.74l0 0c0.83,0.59 1.65,1.19 2.47,1.8l0 0c0.82,0.61 1.63,1.23 2.42,1.86l0 0c0.8,0.63 1.59,1.27 2.38,1.92l0 0c0.79,0.65 1.56,1.3 2.33,1.97l0 0c0.77,0.66 1.53,1.34 2.28,2.02l0 0c0.75,0.68 1.49,1.37 2.23,2.08l0 0c0.74,0.7 1.46,1.41 2.18,2.13l0 0c0.72,0.72 1.42,1.44 2.13,2.18l0 0c0.7,0.74 1.39,1.48 2.08,2.23l0 0c0.69,0.75 1.36,1.51 2.02,2.28l0 0c0.66,0.77 1.32,1.54 1.97,2.33l0 0c0.65,0.78 1.29,1.58 1.91,2.38l0 0c0.63,0.8 1.25,1.61 1.86,2.42l0 0c0.61,0.81 1.21,1.64 1.8,2.47l0 0c0.59,0.83 1.17,1.67 1.74,2.51l0 0c0.57,0.84 1.13,1.69 1.68,2.56l0 0c0.55,0.86 1.09,1.73 1.62,2.6l0 0c0.53,0.87 1.05,1.75 1.56,2.64l0 0c0.51,0.89 1.01,1.78 1.5,2.68l0 0c0.49,0.9 0.97,1.81 1.44,2.72l0 0c0.47,0.91 0.93,1.83 1.37,2.76l0 0c0.45,0.93 0.88,1.86 1.3,2.8l0 0c0.42,0.94 0.84,1.88 1.24,2.83l0 0c0.4,0.95 0.79,1.91 1.17,2.87l0 0c0.38,0.96 0.75,1.93 1.1,2.9l0 0c0.36,0.97 0.7,1.95 1.03,2.94l0 0c0.33,0.98 0.65,1.97 0.96,2.97l0 0c0.31,1 0.61,2 0.89,3l0 0c0.29,1 0.56,2.01 0.82,3.03l0 0c0.26,1.01 0.51,2.03 0.75,3.06l0 0c0.24,1.02 0.46,2.05 0.67,3.09l0 0c0.21,1.03 0.41,2.07 0.6,3.11l0 0c0.19,1.04 0.36,2.09 0.52,3.14l0 0c0.16,1.05 0.31,2.1 0.44,3.16l0 0c0.13,1.06 0.26,2.13 0.37,3.19l0 0c0.11,1.07 0.2,2.14 0.28,3.22l0 0c0.08,1.07 0.15,2.15 0.2,3.24l0 0c0.06,1.08 0.09,2.17 0.12,3.26l0 0c0.03,1.09 0.04,2.18 0.04,3.28l0 0 0 0 0 0.77 -0 0.05 -0 0.72 0 0.09c-0.14,16.77 -2.5,30.48 -8.78,46.1 -16.52,41.06 -58.68,113.29 -116.75,204.93l-1.49 2.07 -1.53 -2.07c-58.07,-91.64 -100.23,-163.87 -116.75,-204.93 -6.28,-15.62 -8.64,-29.33 -8.78,-46.1l-0 -0.09 -0 -0.72 0 -0.05 -0 -0.77c0,-1.1 0.01,-2.19 0.04,-3.28l0 0c0.03,-1.09 0.07,-2.18 0.12,-3.26l0 0c0.05,-1.08 0.12,-2.16 0.2,-3.24l0 0c0.08,-1.08 0.18,-2.15 0.28,-3.22l0 0c0.11,-1.07 0.23,-2.13 0.36,-3.19l0 0c0.13,-1.06 0.28,-2.11 0.44,-3.16l0 0c0.16,-1.05 0.33,-2.1 0.52,-3.14l0 0c0.19,-1.04 0.38,-2.08 0.6,-3.11l0 0c0.21,-1.03 0.43,-2.06 0.67,-3.09l0 0c0.23,-1.03 0.48,-2.05 0.74,-3.06l0 0c0.26,-1.01 0.54,-2.02 0.82,-3.03l0 0c0.28,-1.01 0.58,-2.01 0.89,-3l0 0c0.31,-0.99 0.63,-1.98 0.96,-2.97l0 0c0.33,-0.98 0.68,-1.96 1.03,-2.94l0 0c0.36,-0.97 0.72,-1.94 1.1,-2.9l0 0c0.38,-0.96 0.77,-1.92 1.17,-2.87l0 0c0.4,-0.95 0.81,-1.89 1.24,-2.83l0 0c0.42,-0.94 0.86,-1.87 1.3,-2.8l0 0c0.44,-0.93 0.9,-1.85 1.37,-2.76l0 0c0.47,-0.91 0.94,-1.82 1.43,-2.72l0 0c0.49,-0.9 0.99,-1.79 1.5,-2.68l0 0c0.51,-0.89 1.03,-1.77 1.56,-2.64l0 0c0.53,-0.87 1.07,-1.74 1.62,-2.6l0 0c0.55,-0.86 1.11,-1.71 1.68,-2.56l0 0c0.57,-0.84 1.15,-1.68 1.74,-2.51l0 0c0.59,-0.83 1.19,-1.65 1.8,-2.47l0 0c0.61,-0.82 1.23,-1.62 1.86,-2.42l0 0c0.63,-0.8 1.27,-1.59 1.91,-2.38l0 0c0.65,-0.78 1.3,-1.56 1.97,-2.33l0 0c0.67,-0.77 1.34,-1.53 2.02,-2.28l0 0c0.68,-0.75 1.37,-1.49 2.08,-2.23l0 0c0.7,-0.74 1.41,-1.46 2.13,-2.18l0 0c0.72,-0.72 1.44,-1.43 2.18,-2.13l0 0c0.74,-0.7 1.48,-1.4 2.23,-2.08l0 0c0.75,-0.69 1.51,-1.36 2.28,-2.02l0 0c0.77,-0.67 1.54,-1.32 2.33,-1.97l0 0c0.78,-0.65 1.58,-1.29 2.38,-1.92l0 0c0.8,-0.63 1.61,-1.25 2.42,-1.86l0 0c0.82,-0.61 1.64,-1.21 2.47,-1.8l0 0c0.83,-0.59 1.67,-1.17 2.51,-1.74l0 0c0.84,-0.57 1.7,-1.13 2.56,-1.68l0 0c1.72,-1.1 3.46,-2.16 5.24,-3.18l0 0c0.89,-0.51 1.78,-1.01 2.68,-1.5l0 0c0.9,-0.49 1.81,-0.97 2.72,-1.44l0 0c0.91,-0.47 1.83,-0.93 2.75,-1.37l0 0c0.93,-0.45 1.86,-0.88 2.79,-1.3l0 0c0.94,-0.42 1.88,-0.84 2.83,-1.24l0 0c0.95,-0.4 1.9,-0.79 2.87,-1.17l0 0c0.96,-0.38 1.93,-0.75 2.9,-1.1l0 0c0.97,-0.35 1.95,-0.7 2.93,-1.03l0 0c0.98,-0.33 1.97,-0.66 2.97,-0.96l0 0c1,-0.31 1.99,-0.61 3,-0.89l0 0c1,-0.29 2.01,-0.56 3.03,-0.82l0 0c1.01,-0.26 2.03,-0.51 3.06,-0.75l0 0c1.03,-0.24 2.05,-0.46 3.09,-0.67l0 0c1.03,-0.21 2.07,-0.41 3.11,-0.6l0 0c1.04,-0.19 2.09,-0.36 3.14,-0.52l0 0c1.05,-0.16 2.11,-0.31 3.17,-0.44l0 0c1.06,-0.13 2.12,-0.26 3.19,-0.37l0 0c1.07,-0.11 2.14,-0.2 3.21,-0.28l0 0c1.08,-0.08 2.15,-0.15 3.24,-0.21l0 0c1.08,-0.06 2.17,-0.09 3.26,-0.12l0 0c1.09,-0.03 2.18,-0.04 3.28,-0.04zm-127.04 127.04l0 0 0 0z"
   id="path16" />
   <path
   class="fil3 str0"
   d="M1064.16 547.53c-17.25,35.28 -40.28,72.46 -11.24,95.36 6.98,5.38 87.7,8 99.86,2.32l-88.62 -97.68zm21.76 47.41c0,0 -1.78,7 -1.63,9.55 0.15,2.73 8.78,8.17 10.79,9.34 5.51,2.97 5,5.45 -0.62,4.68 -31.96,0.11 -19.73,-21.5 -17.78,-29.8 -5.32,-12.68 6.8,3.01 9.24,6.23z"
   id="path18" />
   <path
   class="fil1"
   d="M1084.72 500.78l0 0c1.1,0 2.19,0.01 3.28,0.04l0 0c1.09,0.03 2.18,0.07 3.26,0.12l0 0c1.08,0.06 2.16,0.12 3.24,0.21l0 0c1.07,0.08 2.15,0.18 3.21,0.28l0 0c1.06,0.11 2.13,0.23 3.19,0.37l0 0c1.06,0.13 2.11,0.28 3.16,0.44l0 0c1.05,0.16 2.1,0.33 3.14,0.52l0 0c1.04,0.19 2.08,0.38 3.11,0.6l0 0c1.03,0.21 2.06,0.43 3.09,0.67l0 0c1.02,0.24 2.04,0.49 3.06,0.75l0 0c1.01,0.26 2.02,0.54 3.03,0.82l0 0c1,0.29 2,0.58 3,0.89l0 0c1,0.31 1.98,0.63 2.97,0.96l0 0c0.98,0.33 1.96,0.68 2.94,1.03l0 0c0.97,0.36 1.94,0.72 2.9,1.1l0 0c0.96,0.38 1.92,0.77 2.87,1.17l0 0c0.95,0.4 1.89,0.81 2.83,1.24l0 0c0.94,0.42 1.87,0.86 2.79,1.3l0 0c0.93,0.45 1.84,0.9 2.76,1.37l0 0c0.91,0.47 1.82,0.94 2.72,1.44l0 0c0.9,0.49 1.79,0.99 2.68,1.5l0 0c1.77,1.02 3.52,2.08 5.24,3.18l0 0c0.86,0.55 1.71,1.11 2.55,1.68l0 0c0.84,0.57 1.68,1.15 2.51,1.74l0 0c0.83,0.59 1.65,1.19 2.47,1.8l0 0c0.82,0.61 1.63,1.23 2.42,1.86l0 0c0.8,0.63 1.59,1.27 2.38,1.92l0 0c0.79,0.65 1.56,1.3 2.33,1.97l0 0c0.77,0.66 1.53,1.34 2.28,2.02l0 0c0.75,0.68 1.49,1.37 2.23,2.08l0 0c0.74,0.7 1.46,1.41 2.18,2.13l0 0c0.72,0.72 1.42,1.44 2.13,2.18l0 0c0.7,0.74 1.39,1.48 2.08,2.23l0 0c0.69,0.75 1.36,1.51 2.02,2.28l0 0c0.66,0.77 1.32,1.54 1.97,2.33l0 0c0.65,0.78 1.29,1.58 1.91,2.38l0 0c0.63,0.8 1.25,1.61 1.86,2.42l0 0c0.61,0.81 1.21,1.64 1.8,2.47l0 0c0.59,0.83 1.17,1.67 1.74,2.51l0 0c0.57,0.84 1.13,1.69 1.68,2.56l0 0c0.55,0.86 1.09,1.73 1.62,2.6l0 0c0.53,0.87 1.05,1.75 1.56,2.64l0 0c0.51,0.89 1.01,1.78 1.5,2.68l0 0c0.49,0.9 0.97,1.81 1.44,2.72l0 0c0.47,0.91 0.93,1.83 1.37,2.76l0 0c0.45,0.93 0.88,1.86 1.3,2.8l0 0c0.42,0.94 0.84,1.88 1.24,2.83l0 0c0.4,0.95 0.79,1.91 1.17,2.87l0 0c0.38,0.96 0.75,1.93 1.1,2.9l0 0c0.36,0.97 0.7,1.95 1.03,2.94l0 0c0.33,0.98 0.65,1.97 0.96,2.97l0 0c0.31,1 0.61,2 0.89,3l0 0c0.29,1 0.56,2.01 0.82,3.03l0 0c0.26,1.01 0.51,2.03 0.75,3.06l0 0c0.24,1.02 0.46,2.05 0.67,3.09l0 0c0.21,1.03 0.41,2.07 0.6,3.11l0 0c0.19,1.04 0.36,2.09 0.52,3.14l0 0c0.16,1.05 0.31,2.1 0.44,3.16l0 0c0.13,1.06 0.26,2.13 0.37,3.19l0 0c0.11,1.07 0.2,2.14 0.28,3.22l0 0c0.08,1.07 0.15,2.15 0.2,3.24l0 0c0.06,1.08 0.09,2.17 0.12,3.26l0 0c0.03,1.09 0.04,2.18 0.04,3.28l0 0 0 0 0 0.77 -0 0.05 -0 0.72 0 0.09c-0.14,16.77 -2.5,30.48 -8.78,46.1 -16.52,41.06 -58.68,113.29 -116.75,204.93l-1.49 2.07 -1.53 -2.07c-58.07,-91.64 -100.23,-163.87 -116.75,-204.93 -6.28,-15.62 -8.64,-29.33 -8.78,-46.1l-0 -0.09 -0 -0.72 0 -0.05 -0 -0.77c0,-1.1 0.01,-2.19 0.04,-3.28l0 0c0.03,-1.09 0.07,-2.18 0.12,-3.26l0 0c0.05,-1.08 0.12,-2.16 0.2,-3.24l0 0c0.08,-1.08 0.18,-2.15 0.28,-3.22l0 0c0.11,-1.07 0.23,-2.13 0.36,-3.19l0 0c0.13,-1.06 0.28,-2.11 0.44,-3.16l0 0c0.16,-1.05 0.33,-2.1 0.52,-3.14l0 0c0.19,-1.04 0.38,-2.08 0.6,-3.11l0 0c0.21,-1.03 0.43,-2.06 0.67,-3.09l0 0c0.23,-1.03 0.48,-2.05 0.74,-3.06l0 0c0.26,-1.01 0.54,-2.02 0.82,-3.03l0 0c0.28,-1.01 0.58,-2.01 0.89,-3l0 0c0.31,-0.99 0.63,-1.98 0.96,-2.97l0 0c0.33,-0.98 0.68,-1.96 1.03,-2.94l0 0c0.36,-0.97 0.72,-1.94 1.1,-2.9l0 0c0.38,-0.96 0.77,-1.92 1.17,-2.87l0 0c0.4,-0.95 0.81,-1.89 1.24,-2.83l0 0c0.42,-0.94 0.86,-1.87 1.3,-2.8l0 0c0.44,-0.93 0.9,-1.85 1.37,-2.76l0 0c0.47,-0.91 0.94,-1.82 1.43,-2.72l0 0c0.49,-0.9 0.99,-1.79 1.5,-2.68l0 0c0.51,-0.89 1.03,-1.77 1.56,-2.64l0 0c0.53,-0.87 1.07,-1.74 1.62,-2.6l0 0c0.55,-0.86 1.11,-1.71 1.68,-2.56l0 0c0.57,-0.84 1.15,-1.68 1.74,-2.51l0 0c0.59,-0.83 1.19,-1.65 1.8,-2.47l0 0c0.61,-0.82 1.23,-1.62 1.86,-2.42l0 0c0.63,-0.8 1.27,-1.59 1.91,-2.38l0 0c0.65,-0.78 1.3,-1.56 1.97,-2.33l0 0c0.67,-0.77 1.34,-1.53 2.02,-2.28l0 0c0.68,-0.75 1.37,-1.49 2.08,-2.23l0 0c0.7,-0.74 1.41,-1.46 2.13,-2.18l0 0c0.72,-0.72 1.44,-1.43 2.18,-2.13l0 0c0.74,-0.7 1.48,-1.4 2.23,-2.08l0 0c0.75,-0.69 1.51,-1.36 2.28,-2.02l0 0c0.77,-0.67 1.54,-1.32 2.33,-1.97l0 0c0.78,-0.65 1.58,-1.29 2.38,-1.92l0 0c0.8,-0.63 1.61,-1.25 2.42,-1.86l0 0c0.82,-0.61 1.64,-1.21 2.47,-1.8l0 0c0.83,-0.59 1.67,-1.17 2.51,-1.74l0 0c0.84,-0.57 1.7,-1.13 2.56,-1.68l0 0c1.72,-1.1 3.46,-2.16 5.24,-3.18l0 0c0.89,-0.51 1.78,-1.01 2.68,-1.5l0 0c0.9,-0.49 1.81,-0.97 2.72,-1.44l0 0c0.91,-0.47 1.83,-0.93 2.75,-1.37l0 0c0.93,-0.45 1.86,-0.88 2.79,-1.3l0 0c0.94,-0.42 1.88,-0.84 2.83,-1.24l0 0c0.95,-0.4 1.9,-0.79 2.87,-1.17l0 0c0.96,-0.38 1.93,-0.75 2.9,-1.1l0 0c0.97,-0.35 1.95,-0.7 2.93,-1.03l0 0c0.98,-0.33 1.97,-0.66 2.97,-0.96l0 0c1,-0.31 1.99,-0.61 3,-0.89l0 0c1,-0.29 2.01,-0.56 3.03,-0.82l0 0c1.01,-0.26 2.03,-0.51 3.06,-0.75l0 0c1.03,-0.24 2.05,-0.46 3.09,-0.67l0 0c1.03,-0.21 2.07,-0.41 3.11,-0.6l0 0c1.04,-0.19 2.09,-0.36 3.14,-0.52l0 0c1.05,-0.16 2.11,-0.31 3.17,-0.44l0 0c1.06,-0.13 2.12,-0.26 3.19,-0.37l0 0c1.07,-0.11 2.14,-0.2 3.21,-0.28l0 0c1.08,-0.08 2.15,-0.15 3.24,-0.21l0 0c1.08,-0.06 2.17,-0.09 3.26,-0.12l0 0c1.09,-0.03 2.18,-0.04 3.28,-0.04zm-127.04 127.04l0 0 0 0z"
   id="path20" />
   <path
   class="fil3"
   d="M1064.16 547.53c-17.25,35.28 -40.28,72.46 -11.24,95.36 6.98,5.38 87.7,8 99.86,2.32l-88.62 -97.68zm21.76 47.41c0,0 -1.78,7 -1.63,9.55 0.15,2.73 8.78,8.17 10.79,9.34 5.51,2.97 5,5.45 -0.62,4.68 -31.96,0.11 -19.73,-21.5 -17.78,-29.8 -5.32,-12.68 6.8,3.01 9.24,6.23z"
   id="path22" />
   <path
   class="fil0"
   d="M1257.96 688.57l0 0 2.82 3.1 20.1 22.16 -32.09 6.45 -4.47 0.9 -4.48 0.9c-12.16,25.81 -29.06,57.4 -50,93.93 -28.25,49.28 -63.86,107.52 -105.11,172.64 -41.24,-65.11 -76.85,-123.36 -105.11,-172.64 -28.43,-49.6 -49.42,-90.1 -61.2,-119.37 -4.42,-10.99 -7.46,-21.29 -9.41,-31.76 -1.95,-10.51 -2.84,-21.24 -2.93,-33.04 -1.2,-12.23 1.63,-30.02 5.25,-44.92l-3.1 -3.41 -2.93 -3.23 -20.19 -22.21 48.13 -36.47 10.96 -8.3 0 -0.01 17.2 -13.03c9.11,-8.61 19.3,-16.44 30.65,-23.55 28.93,-17.06 59.04,-25.87 92.67,-25.87 32.46,0.31 60.67,7.72 88.96,23.67l3.68 2.18c63.77,39.81 84.67,101.17 86,155.13 -0.1,11.8 -0.98,22.53 -2.94,33.04 -1.27,6.85 -3.02,13.63 -5.31,20.58l2.83 3.12z"
   id="path24" />
   <path
   class="fil1"
   d="M1084.72 500.56l0 0c0.84,0 1.68,0.01 2.52,0.03l124.24 136.94 -0.01 0.1c-1.43,0.37 -2.89,1.29 -4.98,2.77 -19.51,13.2 -51.13,49.96 -78.42,35.11 -8.57,-4.66 -22.13,-3.29 -25.88,2.65 -4.35,6.89 -3.1,10.91 5.85,19.87 6.05,6.19 10.32,8.41 19.76,10.05 7.37,1.43 21.08,4.82 31.12,9.1 4.83,2.06 11.21,6.3 18.05,11.57 -21.64,40.03 -52.79,91.63 -90.75,151.52l-1.49 2.07 -1.53 -2.07c-37.22,-58.73 -67.9,-109.49 -89.48,-149.18l23.55 -64.99 -57.23 -63.06 0.21 -1.04 0 0c0.21,-1.03 0.43,-2.06 0.67,-3.09l0 0c0.23,-1.03 0.48,-2.05 0.74,-3.06l0 0c0.26,-1.01 0.54,-2.02 0.82,-3.03l0 0c0.28,-1.01 0.58,-2.01 0.89,-3l0 0c0.31,-0.99 0.63,-1.98 0.96,-2.97l0 0c0.33,-0.98 0.68,-1.96 1.03,-2.94l0 0c0.36,-0.97 0.72,-1.94 1.1,-2.9l0 0c0.38,-0.96 0.77,-1.92 1.17,-2.87l0 0c0.4,-0.95 0.81,-1.89 1.24,-2.83l0 0c0.42,-0.94 0.86,-1.87 1.3,-2.8l0 0c0.44,-0.93 0.9,-1.85 1.37,-2.76l0 0c0.47,-0.91 0.94,-1.82 1.43,-2.72l0 0c0.49,-0.9 0.99,-1.79 1.5,-2.68l0 0c0.51,-0.89 1.03,-1.77 1.56,-2.64l0 0c0.53,-0.87 1.07,-1.74 1.62,-2.6l0 0c0.55,-0.86 1.11,-1.71 1.68,-2.56l0 0c0.57,-0.84 1.15,-1.68 1.74,-2.51l0 0c0.59,-0.83 1.19,-1.65 1.8,-2.47l0 0c0.61,-0.82 1.23,-1.62 1.86,-2.42l0 0c0.63,-0.8 1.27,-1.59 1.91,-2.38l0 0c0.65,-0.78 1.3,-1.56 1.97,-2.33l0 0c0.67,-0.77 1.34,-1.53 2.02,-2.28l0 0c0.68,-0.75 1.37,-1.49 2.08,-2.23l0 0c0.7,-0.74 1.41,-1.46 2.13,-2.18l0 0c0.72,-0.72 1.44,-1.43 2.18,-2.13l0 0c0.74,-0.7 1.48,-1.4 2.23,-2.08l0 0c0.75,-0.69 1.51,-1.36 2.28,-2.02l0 0c0.77,-0.67 1.54,-1.32 2.33,-1.97l0 0c0.78,-0.65 1.58,-1.29 2.38,-1.92l0 0c0.8,-0.63 1.61,-1.25 2.42,-1.86l0 0c0.82,-0.61 1.64,-1.21 2.47,-1.8l0 0c0.83,-0.59 1.67,-1.17 2.51,-1.74l0 0c0.84,-0.57 1.7,-1.13 2.56,-1.68l0 0c1.72,-1.1 3.46,-2.16 5.24,-3.18l0 0c0.89,-0.51 1.78,-1.01 2.68,-1.5l0 0c0.9,-0.49 1.81,-0.97 2.72,-1.44l0 0c0.91,-0.47 1.83,-0.93 2.75,-1.37l0 0c0.93,-0.45 1.86,-0.88 2.79,-1.3l0 0c0.94,-0.42 1.88,-0.84 2.83,-1.24l0 0c0.95,-0.4 1.9,-0.79 2.87,-1.17l0 0c0.96,-0.38 1.93,-0.75 2.9,-1.1l0 0c0.97,-0.35 1.95,-0.7 2.93,-1.03l0 0c0.98,-0.33 1.97,-0.66 2.97,-0.96l0 0c1,-0.31 1.99,-0.61 3,-0.89l0 0c1,-0.29 2.01,-0.56 3.03,-0.82l0 0c1.01,-0.26 2.03,-0.51 3.06,-0.75l0 0c1.03,-0.24 2.05,-0.46 3.09,-0.67l0 0c1.03,-0.21 2.07,-0.41 3.11,-0.6l0 0c1.04,-0.19 2.09,-0.36 3.14,-0.52l0 0c1.05,-0.16 2.11,-0.31 3.17,-0.44l0 0c1.06,-0.13 2.12,-0.26 3.19,-0.37l0 0c1.07,-0.11 2.14,-0.2 3.21,-0.28l0 0c1.08,-0.08 2.15,-0.15 3.24,-0.21l0 0c1.08,-0.06 2.17,-0.09 3.26,-0.12l0 0c1.09,-0.03 2.18,-0.04 3.28,-0.04z"
   id="path26" />
   <path
   class="fil0"
   d="M1064.08 547.46c-17.25,35.28 -40.21,72.31 -11.16,95.22 6.98,5.38 87.7,8 99.86,2.32l-88.69 -97.54zm21.84 47.27c0,0 -1.78,7 -1.63,9.55 0.15,2.73 8.78,8.17 10.79,9.34 5.51,2.97 5,5.45 -0.62,4.68 -31.96,0.11 -19.73,-21.5 -17.78,-29.8 -5.32,-12.68 6.8,3.01 9.24,6.23z"
   id="path28" />
  </g>
 </g>
<path
   class="fil6 str6"
   d="m 1362.3907,1114.785 h 9.3688 v 52.9004 h -9.3688 v -22.2973 h -12.772 v 22.2973 h -9.2946 v -52.9004 h 9.2946 v 21.7617 h 12.772 z m 45.8882,52.9004 -2.1177,-9.5995 h -12.3928 l -2.1177,9.5995 h -9.6737 l 13.0026,-52.9004 h 9.9786 l 13.0026,52.9004 h -9.6737 z m -12.6236,-18.441 h 8.619 l -2.1177,-9.8302 c -0.4037,-2.0188 -1.1041,-6.3448 -2.1176,-13.0027 h -0.2225 c -0.7087,5.4878 -1.3843,9.822 -2.0435,13.0027 z m 45.8141,19.3474 c -4.9934,0 -8.8827,-1.4502 -11.676,-4.3425 -2.7934,-2.8922 -4.1942,-7.0451 -4.1942,-12.434 v -21.1602 c 0,-5.4384 1.4008,-9.6243 4.1942,-12.5412 2.7933,-2.9252 6.6908,-4.3836 11.676,-4.3836 5.0346,0 8.9568,1.4502 11.7501,4.3424 2.7934,2.8922 4.3178,7.0452 4.5732,12.4341 h -9.2947 c -0.1483,-2.7192 -0.8075,-4.6968 -1.9693,-5.9328 -1.1618,-1.236 -2.8675,-1.854 -5.1335,-1.854 -4.1364,0 -6.1964,2.6451 -6.1964,7.9351 v 21.1602 c 0,5.1911 2.0929,7.7867 6.2788,7.7867 2.3154,0 4.0541,-0.618 5.2159,-1.854 1.1618,-1.236 1.8375,-3.1641 2.0435,-5.7844 h 9.2947 c -0.1978,5.3395 -1.7222,9.4512 -4.5732,12.3187 -2.8428,2.8675 -6.8392,4.3095 -11.9809,4.3095 z m 51.6314,-0.9064 -11.1074,-21.5392 -3.2465,5.0676 v 16.4716 h -9.1464 v -52.9004 h 9.1464 v 21.6875 l 3.0982,-6.1964 8.8415,-15.4911 h 10.7284 l -14.2139,23.0471 16.4798,29.8533 z m 44.4545,-3.1724 c -2.8757,2.8181 -6.7732,4.2353 -11.7172,4.2353 -4.9357,0 -8.8249,-1.4172 -11.676,-4.2353 -2.8427,-2.818 -4.293,-6.7485 -4.3424,-11.7913 h 9.5254 c 0.049,4.639 2.2412,6.9545 6.5754,6.9545 2.0683,0 3.6256,-0.5438 4.6886,-1.6233 1.0629,-1.0794 1.5903,-2.5049 1.5903,-4.2683 0,-1.4585 -0.5274,-2.8428 -1.5903,-4.1529 -1.0547,-1.3102 -2.3649,-2.4308 -3.9305,-3.3619 -1.5573,-0.9311 -3.2712,-2.0188 -5.1335,-3.2465 -1.8622,-1.236 -3.5761,-2.4803 -5.1417,-3.741 -1.5573,-1.2607 -2.8675,-2.9252 -3.9304,-4.9934 -1.0548,-2.0682 -1.5821,-4.3342 -1.5821,-6.7979 0,-4.0294 1.3513,-7.3253 4.0458,-9.8962 2.6945,-2.5709 6.3365,-3.8563 10.9179,-3.8563 4.738,0 8.4542,1.3596 11.1487,4.0788 2.6944,2.7191 4.0705,6.4518 4.1199,11.1898 h -9.5253 c -0.049,-4.1859 -1.9694,-6.2788 -5.7433,-6.2788 -1.7139,0 -3.057,0.4532 -4.0458,1.3596 -0.9805,0.9064 -1.4749,2.1176 -1.4749,3.6255 0,1.2607 0.3872,2.4143 1.17,3.4773 0.7828,1.0547 1.8128,2.0188 3.0982,2.8675 1.2855,0.8569 2.6945,1.7139 4.2354,2.5709 1.5326,0.8569 3.057,1.8127 4.5731,2.8675 1.5162,1.0629 2.9087,2.2165 4.1942,3.4772 1.2854,1.2607 2.3154,2.8263 3.0982,4.6885 0.7828,1.8623 1.1701,3.9305 1.1701,6.1965 0,4.2847 -1.4338,7.8362 -4.3095,10.6542 z m 30.0181,-49.728 c 5.3395,0 9.5007,1.5491 12.4753,4.6473 2.9746,3.0982 4.4578,7.4159 4.4578,12.9614 0,5.5455 -1.4832,9.8468 -4.4578,12.9203 -2.9746,3.0734 -7.1275,4.6143 -12.4753,4.6143 h -5.3642 v 17.7571 h -9.2946 v -52.9004 z m -0.074,26.376 c 4.9852,0 7.4819,-2.9252 7.4819,-8.7673 0,-5.8421 -2.4967,-8.7673 -7.4819,-8.7673 h -5.29 v 17.5346 z m 47.322,26.5244 -2.1176,-9.5995 h -12.3929 l -2.1177,9.5995 h -9.6737 l 13.0027,-52.9004 h 9.9785 l 13.0027,52.9004 h -9.6737 z m -12.6236,-18.441 h 8.619 l -2.1176,-9.8302 c -0.4038,-2.0188 -1.1042,-6.3448 -2.1177,-13.0027 h -0.2225 c -0.7086,5.4878 -1.3843,9.822 -2.0435,13.0027 z m 45.8141,19.3474 c -4.9934,0 -8.8826,-1.4502 -11.676,-4.3425 -2.7933,-2.8922 -4.1941,-7.0451 -4.1941,-12.434 v -21.1602 c 0,-5.4384 1.4008,-9.6243 4.1941,-12.5412 2.7934,-2.9252 6.6909,-4.3836 11.676,-4.3836 5.0346,0 8.9568,1.4502 11.7502,4.3424 2.7933,2.8922 4.3177,7.0452 4.5731,12.4341 h -9.2946 c -0.1483,-2.7192 -0.8075,-4.6968 -1.9694,-5.9328 -1.1618,-1.236 -2.8675,-1.854 -5.1334,-1.854 -4.1365,0 -6.1965,2.6451 -6.1965,7.9351 v 21.1602 c 0,5.1911 2.093,7.7867 6.2789,7.7867 2.3154,0 4.054,-0.618 5.2158,-1.854 1.1619,-1.236 1.8375,-3.1641 2.0435,-5.7844 h 9.2947 c -0.1977,5.3395 -1.7221,9.4512 -4.5732,12.3187 -2.8427,2.8675 -6.8391,4.3095 -11.9808,4.3095 z m 37.4258,-9.6737 h 18.062 v 8.7673 h -27.3567 v -52.9004 h 26.6068 v 8.7673 h -17.3121 v 13.0768 h 15.8701 v 8.4624 h -15.8701 z"
   id="path299"
   inkscape:connector-curvature="0"
   style="clip-rule:evenodd;fill:#fefefe;fill-opacity:1;fill-rule:nonzero;stroke:#2b2a29;stroke-width:2.1259048;stroke-miterlimit:2.61313009;image-rendering:optimizeQuality;shape-rendering:geometricPrecision;text-rendering:geometricPrecision" /><path
   class="fil6"
   d="m 1396.1744,818.8655 c 4.9028,2.4555 8.7344,6.08107 11.4783,10.86848 2.7439,4.79564 4.1199,10.16809 4.1199,16.12556 0,10.86848 -3.3042,19.56986 -9.9044,26.12062 -6.6002,6.54251 -15.2192,9.81376 -25.8569,9.81376 h -36.9809 V 759.1012 h 35.9344 c 9.6984,0 17.5264,3.12294 23.4921,9.37705 5.9575,6.24588 8.9403,14.51878 8.9403,24.80223 0,11.21456 -3.7409,19.75114 -11.2145,25.59325 z m -24.5385,-39.43636 h -11.0415 v 30.14994 h 11.7419 c 8.7673,0 13.1427,-5.14172 13.1427,-15.42517 0,-9.82201 -4.6144,-14.72477 -13.8431,-14.72477 z m 1.0547,82.02861 c 11.3381,0 16.999,-5.1994 16.999,-15.59821 0,-5.25708 -1.4914,-9.26169 -4.4661,-12.00559 -2.9828,-2.75214 -7.2182,-4.11997 -12.706,-4.11997 h -11.9231 v 31.72377 z m 91.4963,22.43736 c -12.1539,0 -21.6463,-3.68326 -28.4855,-11.04152 -6.8391,-7.35827 -10.2587,-17.52636 -10.2587,-30.49602 v -43.82001 c 0,-12.96967 3.4196,-23.13776 10.2587,-30.49602 6.8392,-7.35827 16.3316,-11.04153 28.4855,-11.04153 12.0303,0 21.4733,3.68326 28.3042,11.04153 6.8391,7.35826 10.2505,17.52635 10.2505,30.49602 v 43.82001 c 0,12.96966 -3.4196,23.13775 -10.2505,30.49602 -6.8392,7.35826 -16.2739,11.04152 -28.3042,11.04152 z m 0,-20.86353 c 10.8685,0 16.2986,-6.89683 16.2986,-20.68225 v -43.82001 c 0,-13.78542 -5.4301,-20.68225 -16.2986,-20.68225 -10.9838,0 -16.4799,6.89683 -16.4799,20.68225 v 43.82001 c 0,13.79366 5.4878,20.68225 16.4799,20.68225 z m 111.4782,18.7541 -21.91,-42.76529 h -9.8138 v 42.76529 h -21.5557 V 759.09296 h 33.6519 c 12.0303,0 21.358,3.47726 27.9581,10.43177 6.6002,6.95451 9.9045,16.67764 9.9045,29.18587 0,18.11139 -6.4272,30.2653 -19.2815,36.46174 l 24.7116,46.62158 h -23.6651 z m -31.7238,-102.19175 v 38.90901 h 11.9232 c 10.6377,0 15.9525,-6.54252 15.9525,-19.63578 0,-12.85431 -5.3148,-19.28147 -15.9525,-19.28147 h -11.9232 z m 68.8859,-20.50921 h 21.5557 v 122.69272 h -21.5557 z m 98.8628,0 h 21.2096 v 122.69272 h -21.3826 l -23.6651,-53.28769 c -6.8969,-17.88068 -10.6955,-27.86749 -11.3959,-29.97691 l -0.5273,0.52736 c 1.7551,15.42517 2.6285,31.26233 2.6285,47.50326 v 35.23398 h -21.2096 V 759.08472 h 21.3827 l 25.5932,57.66311 c 1.1701,2.92518 2.8922,7.33355 5.1747,13.23335 2.2742,5.89979 3.8233,9.84673 4.6473,11.83255 l 0.5274,-0.52735 c -1.9859,-15.65589 -2.9746,-30.61963 -2.9746,-44.87473 v -37.33517 z m 78.3536,124.80215 c -11.7996,0 -21.0036,-3.38662 -27.612,-10.16809 -6.6002,-6.78147 -9.9044,-16.4222 -9.9044,-28.92219 v -48.73101 c 0,-12.62359 3.3042,-22.28904 9.9044,-29.0046 6.6002,-6.72379 15.8042,-10.07745 27.612,-10.07745 11.3382,0 20.1549,3.30422 26.4667,9.90441 6.3118,6.6002 9.6984,16.15029 10.1681,28.65852 h -21.5557 c -0.2307,-6.19644 -1.5738,-10.69544 -4.0293,-13.49702 -2.4555,-2.80158 -6.1388,-4.21061 -11.0415,-4.21061 -10.1681,0 -15.2522,6.08107 -15.2522,18.22675 v 48.73101 c 0,12.15392 5.1994,18.22675 15.5982,18.22675 10.6378,0 15.9526,-5.95748 15.9526,-17.88067 v -11.91496 h -16.999 v -19.10842 h 38.0355 v 31.02338 c -0.2307,12.38463 -3.6255,21.94296 -10.1681,28.65851 -6.5425,6.71555 -15.5982,10.07745 -27.167,10.07745 z"
   id="path301"
   inkscape:connector-curvature="0"
   style="clip-rule:evenodd;fill:#fefefe;fill-opacity:1;fill-rule:nonzero;stroke-width:0.82399416;image-rendering:optimizeQuality;shape-rendering:geometricPrecision;text-rendering:geometricPrecision" /><path
   class="fil6"
   d="m 1366.7249,911.49891 c 10.9838,0 19.4545,3.21358 25.4202,9.64073 5.9575,6.42716 8.998,15.54053 9.1134,27.34013 0,12.26927 -2.9829,21.67929 -8.9404,28.2218 -5.9575,6.54251 -14.494,9.81374 -25.5932,9.81374 h -19.8089 v 47.67639 h -7.8856 V 911.49891 Z m 0,67.48513 c 17.6417,0 26.4667,-10.1681 26.4667,-30.49603 0.1153,-9.58305 -2.0765,-16.88364 -6.5755,-21.91001 -4.499,-5.02636 -11.1322,-7.53954 -19.8912,-7.53954 h -19.8089 v 59.94558 z m 59.9455,47.67636 h 45.2208 v 7.5395 h -53.1146 V 911.50715 h 7.8856 v 115.16145 z m 114.9802,7.5395 -8.0587,-31.3777 h -40.8371 l -8.0587,31.3777 h -8.413 l 32.4242,-122.69275 h 8.9403 l 32.4242,122.69275 h -8.413 z m -46.9759,-38.73596 h 36.9808 l -12.7966,-50.30487 c -0.8157,-3.03229 -1.8705,-7.27586 -3.1559,-12.70599 -1.2854,-5.43836 -2.1012,-8.97329 -2.4555,-10.6048 h -0.173 c -0.3543,1.63151 -1.1701,5.16644 -2.4555,10.6048 -1.2855,5.43013 -2.3402,9.6737 -3.1559,12.70599 l -12.7967,50.30487 z m 99.2089,40.83716 c -9.8138,0 -17.617,-3.1559 -23.4015,-9.4677 -5.7844,-6.3118 -8.6766,-15.3099 -8.6766,-26.99406 v -53.98811 c 0,-11.68424 2.8675,-20.68225 8.5942,-26.99405 5.7268,-6.3118 13.4394,-9.46769 23.1378,-9.46769 9.9291,0 17.7324,2.94989 23.4014,8.84969 5.6691,5.8998 8.8497,14.40342 9.5501,25.50262 h -7.7126 c -1.4008,-18.11139 -9.8137,-27.16708 -25.2389,-27.16708 -7.4819,0 -13.3487,2.48022 -17.617,7.4489 -4.2683,4.96869 -6.3942,12.23632 -6.3942,21.81937 v 53.98815 c 0,9.58296 2.1918,16.85886 6.5755,21.81936 4.3836,4.9687 10.3164,7.4489 17.79,7.4489 15.6641,0 24.2502,-9.0557 25.7663,-27.1671 h 7.7126 c -0.8158,11.0992 -4.087,19.6028 -9.8138,25.5026 -5.7267,5.8999 -13.6124,8.8498 -23.6651,8.8498 z m 62.228,-9.4677 h 48.9041 v 7.3583 H 1648.226 V 911.49891 h 55.5619 v 7.35827 h -47.6763 v 49.25013 h 44.3474 v 7.35827 h -44.3474 v 51.35962 z"
   id="path303"
   inkscape:connector-curvature="0"
   style="clip-rule:evenodd;fill:#fefefe;fill-opacity:1;fill-rule:nonzero;stroke-width:0.82399416;image-rendering:optimizeQuality;shape-rendering:geometricPrecision;text-rendering:geometricPrecision" /><polygon
   transform="matrix(0.82399415,0,0,0.55371008,-3634.9855,-26.611668)"
   class="fil4"
   points="6629.45,1972.98 6629.45,2022.95 6036.47,2022.95 6036.47,1972.98 "
   id="polygon305"
   style="clip-rule:evenodd;fill:#fefefe;fill-opacity:1;fill-rule:evenodd;image-rendering:optimizeQuality;shape-rendering:geometricPrecision;text-rendering:geometricPrecision" /></svg>